<svg width="364" height="301" viewBox="0 0 364 301" fill="none" xmlns="http://www.w3.org/2000/svg">
<rect x="326.706" y="1.94562" width="6.1223" height="0.556573" fill="#D9D9D9"/>
<path d="M5.56573 183.669C2.49186 183.669 0 186.161 0 189.235V294.984C0 298.057 2.49187 300.549 5.56573 300.549H358.434C361.508 300.549 364 298.057 364 294.984V5.56573C364 2.49186 361.508 0 358.434 0H51.7613C48.6874 0 46.1956 2.49186 46.1956 5.56573V178.103C46.1956 181.177 43.7037 183.669 40.6298 183.669H5.56573Z" fill="#C8F169"/>
<mask id="mask0_101_938" style="mask-type:alpha" maskUnits="userSpaceOnUse" x="48" y="0" width="316" height="301">
<path d="M53.5793 164.279C50.5054 164.279 48.0135 166.771 48.0135 169.845V294.997C48.0135 298.071 50.5054 300.563 53.5793 300.563H358.434C361.508 300.563 364 298.071 364 294.997V5.57928C364 2.50541 361.508 0.0135498 358.434 0.0135498H108.774C105.701 0.0135498 103.209 2.50541 103.209 5.57928V158.713C103.209 161.787 100.717 164.279 97.643 164.279H53.5793Z" fill="#7EA6F3"/>
</mask>
<g mask="url(#mask0_101_938)">
<mask id="mask1_101_938" style="mask-type:alpha" maskUnits="userSpaceOnUse" x="110" y="-1" width="285" height="302">
<path d="M110.438 -0.341553H394.501V300.208H110.438V-0.341553Z" fill="#D9D9D9"/>
</mask>
<g mask="url(#mask1_101_938)">
<path d="M314.419 231.807V64.7991C314.419 56.4281 307.633 49.6422 299.262 49.6422H132.254C123.883 49.6422 117.097 56.4281 117.097 64.7991V231.807C117.097 240.178 123.883 246.964 132.254 246.964H299.262C307.633 246.964 314.419 240.178 314.419 231.807ZM251.598 14.7025C261.407 7.48806 274.707 -3.63128 276.908 -16.8425L275.901 -17.0092C274.877 -10.856 271.176 -0.961143 250.992 13.8828C239.539 22.3048 234.59 24.9477 224.053 21.5429C223.127 21.2435 222.583 20.6653 222.434 19.8251C222.083 17.8489 223.927 14.842 226.913 12.5086C231.696 8.77041 261.775 -17.7099 262.077 -17.9752L261.404 -18.7405C261.101 -18.4752 231.046 7.98808 226.287 11.7059C222.964 14.3012 221.015 17.638 221.434 20.0054C221.651 21.2299 222.451 22.0973 223.743 22.5157C226.818 23.5089 229.454 23.9987 231.91 23.9987C238.196 23.9987 243.312 20.8013 251.601 14.7093L251.598 14.7025ZM273.098 49.7137C291.017 47.9721 310.317 32.1996 328.981 16.9475C333.021 13.6447 337.202 10.2296 341.229 7.07649C363.128 -10.0566 400.394 -34.4314 400.765 -34.6729L400.207 -35.5267C399.833 -35.2818 362.532 -10.8832 340.6 6.27374C336.562 9.43369 332.379 12.8521 328.331 16.1584C309.786 31.3152 290.609 46.9857 272.996 48.7C251.234 50.8157 236.288 47.9687 228.577 40.2406C223.845 35.499 221.862 28.9274 222.678 20.7027L221.665 20.6007C220.814 29.1417 222.896 35.9922 227.855 40.9583C234.118 47.234 244.91 50.394 260.03 50.3906C264.077 50.3906 268.435 50.1627 273.095 49.7103L273.098 49.7137ZM332.232 119.001C338.175 114.889 346.107 94.7387 346.44 93.8917C346.821 92.9665 355.743 71.1938 356.648 66.6631C356.941 65.1903 356.597 63.6698 355.651 62.2718C353.923 59.7173 350.287 57.7037 345.923 56.8839C344.624 56.639 343.205 56.5404 341.712 56.588C340.185 56.6356 337.828 56.7071 336.137 56.7581C335.641 55.3805 333.845 50.0844 334.477 46.9721C335.028 44.2441 336.335 42.5468 338.311 39.9753C342.566 34.4378 349.689 25.1654 358.628 -5.99188L357.648 -6.2742C348.763 24.6994 341.716 33.8731 337.505 39.3528C335.518 41.938 334.079 43.8087 333.481 46.768C332.76 50.3293 334.824 56.1492 335.246 57.2751L314.147 113.542C313.205 116.049 314.048 118.913 316.195 120.498C318.127 121.926 320.235 122.641 322.514 122.641C325.484 122.641 328.736 121.426 332.239 118.998L332.232 119.001ZM341.746 57.605C343.168 57.5608 344.512 57.6561 345.736 57.884C349.838 58.6527 353.23 60.5065 354.808 62.8399C355.611 64.027 355.893 65.2447 355.648 66.4624C354.764 70.8979 345.59 93.2794 345.495 93.5107C345.413 93.7182 337.341 114.226 331.654 118.161C325.858 122.175 320.861 122.685 316.8 119.678C315.018 118.358 314.32 115.984 315.103 113.899L336.151 57.7717C337.841 57.7241 340.216 57.6492 341.75 57.6016L341.746 57.605ZM356.243 141.93C366.512 140.005 377.118 129.668 386.911 112.042C391.394 103.97 412.956 55.0335 413.173 54.5403L412.238 54.1287C412.02 54.622 390.479 103.518 386.016 111.549C376.376 128.903 366.016 139.063 356.056 140.93C348.821 142.288 342.243 141.308 335.95 137.941C329.528 134.505 323.188 128.481 316.562 119.522L315.742 120.127C327.042 135.406 337.821 142.536 349.971 142.536C352.019 142.536 354.107 142.332 356.243 141.934V141.93ZM377.693 331.85C377.591 331.789 367.505 325.82 366.478 321.35C366.312 320.622 366.407 320 366.781 319.442C366.873 319.296 376.114 304.635 380.727 296.574C381.863 294.587 382.176 292.815 381.679 291.159C380.618 287.625 376.009 285.295 370.676 282.601C368.672 281.591 366.601 280.543 364.57 279.363C363.322 278.638 361.907 277.781 360.403 276.873C350.025 270.597 334.341 261.114 323.688 263.927C311.997 267.015 308.654 272.941 307.024 282.699C303.187 278.087 301.058 273.716 300.351 269.019C299.402 262.729 301.082 256.056 305.48 248.617C309.868 241.198 318.14 235.419 328.77 232.348C338.923 229.416 350.379 229.093 361.032 231.436C383.312 236.338 440.834 271.291 441.412 271.641L441.943 270.771C441.797 270.682 427.255 261.835 410.136 252.491C387.125 239.933 370.679 232.514 361.25 230.44C350.434 228.059 338.794 228.388 328.484 231.368C317.603 234.511 309.12 240.453 304.599 248.096C300.075 255.746 298.354 262.638 299.337 269.168C300.116 274.349 302.541 279.128 306.966 284.21L307.691 285.043L307.854 283.951C309.392 273.737 312.303 267.988 323.943 264.913C334.185 262.209 349.641 271.56 359.869 277.747C361.373 278.655 362.794 279.516 364.05 280.247C366.107 281.444 368.192 282.495 370.206 283.516C375.332 286.104 379.757 288.339 380.693 291.455C381.104 292.829 380.822 294.336 379.832 296.067C375.23 304.108 366.002 318.751 365.917 318.887C365.393 319.67 365.247 320.578 365.478 321.581C366.604 326.479 376.737 332.48 377.169 332.731L377.686 331.85H377.693ZM366.59 318.721C366.067 318.438 314.317 290.659 312.092 289.322C309.895 288.002 307.82 286.757 307.868 283.887L306.847 283.87C306.793 287.332 309.33 288.853 311.569 290.196C313.813 291.543 363.975 318.472 366.111 319.619L366.594 318.721H366.59Z" fill="#C8F169"/>
<path d="M338.315 39.9725C336.339 42.5439 335.036 44.2413 334.482 46.9692C333.853 50.0816 335.645 55.3742 336.142 56.7552C337.829 56.7076 340.189 56.6328 341.717 56.5851C343.21 56.5409 344.628 56.6396 345.928 56.8811C350.292 57.6974 353.928 59.7111 355.656 62.269C356.601 63.6704 356.945 65.1874 356.653 66.6602C355.748 71.191 346.822 92.9637 346.445 93.8889C346.111 94.7358 338.179 114.886 332.237 118.998C328.73 121.427 325.478 122.641 322.512 122.641C321.009 122.641 319.577 122.322 318.223 121.699C324.254 129.461 330.07 134.791 335.955 137.938C342.247 141.305 348.826 142.281 356.061 140.928C366.02 139.06 376.381 128.9 386.021 111.546C387.473 108.93 390.745 101.971 394.497 93.7596V-0.341553H356.959C348.805 26.3224 342.302 34.7852 338.315 39.9725Z" fill="#043F2E"/>
<path d="M157.585 70.8621C160.571 63.0932 163.106 56.0488 165.228 49.637H164.157C162.037 56.0079 159.534 62.9401 156.633 70.4947L157.585 70.8621Z" fill="#C8F169"/>
<path d="M316.8 119.676C320.861 122.683 325.861 122.173 331.654 118.159C337.341 114.22 345.413 93.7163 345.494 93.5088C345.59 93.2741 354.763 70.896 355.648 66.4605C355.889 65.2428 355.607 64.025 354.808 62.8379C353.229 60.5045 349.838 58.6507 345.736 57.882C344.511 57.6507 343.164 57.5589 341.746 57.6031C340.212 57.6507 337.838 57.7222 336.147 57.7732L315.099 113.901C314.317 115.986 315.017 118.36 316.796 119.68L316.8 119.676Z" fill="#043F2E"/>
<path d="M380.704 291.456C379.769 288.341 375.344 286.106 370.218 283.517C368.201 282.5 366.116 281.446 364.061 280.249C362.806 279.517 361.384 278.66 359.881 277.749C349.653 271.561 334.193 262.214 323.955 264.915C312.329 267.986 309.41 273.725 307.873 283.912C307.839 286.766 309.907 288.007 312.097 289.32C312.988 289.858 321.849 294.647 332.176 300.208H377.419C378.306 298.722 379.13 297.314 379.844 296.065C380.834 294.334 381.116 292.824 380.704 291.453V291.456Z" fill="#043F2E"/>
<path d="M251.597 14.7009C243.308 20.7963 238.192 23.9903 231.906 23.9903C229.45 23.9903 226.814 23.5039 223.739 22.5072C223.294 22.3644 222.913 22.1637 222.586 21.9154C222.076 29.5686 224.086 35.7287 228.579 40.2322C236.291 47.9603 251.236 50.8073 272.999 48.6916C290.612 46.9807 309.789 31.3068 328.334 16.1499C332.378 12.8437 336.562 9.42525 340.603 6.2653C343.307 4.1496 346.242 1.92505 349.317 -0.350525H268.434C263.369 5.63263 256.964 10.7484 251.597 14.6941V14.7009Z" fill="#043F2E"/>
<path d="M361.043 231.448C350.39 229.104 338.93 229.427 328.78 232.359C318.151 235.431 309.879 241.207 305.491 248.629C301.089 256.068 299.412 262.741 300.361 269.03C301.069 273.728 303.198 278.099 307.035 282.711C308.664 272.949 312.008 267.024 323.699 263.939C334.352 261.126 350.036 270.609 360.414 276.884C361.914 277.793 363.332 278.65 364.581 279.374C366.611 280.555 368.683 281.602 370.686 282.612C376.02 285.306 380.629 287.633 381.69 291.171C382.187 292.827 381.877 294.596 380.738 296.586C380.105 297.691 379.384 298.922 378.612 300.222H394.503V245.407C381.652 238.873 369.067 233.213 361.047 231.451L361.043 231.448Z" fill="#043F2E"/>
<path d="M226.917 12.5091C223.93 14.8425 222.09 17.8494 222.437 19.8257C222.587 20.6658 223.131 21.2441 224.056 21.5434C234.594 24.9482 239.543 22.3053 250.996 13.8833C258.298 8.51243 263.441 3.79121 267.084 -0.341553H241.941C235.203 5.52255 228.893 10.9615 226.917 12.5091Z" fill="#043F2E"/>
<rect width="197.443" height="197.367" rx="16.9839" transform="matrix(-1 0 0 1 313.925 49.637)" fill="#043F2E" stroke="#C8F169" stroke-width="1.08408"/>
<path d="M152.26 99.8018H139.906V102.187H152.26V99.8018Z" fill="#C8F169"/>
<path d="M152.26 90.2026H139.906V92.5881H152.26V90.2026Z" fill="#C8F169"/>
<path d="M152.26 108.194H139.906V110.58H152.26V108.194Z" fill="#C8F169"/>
<path d="M152.26 116.586H139.906V118.971H152.26V116.586Z" fill="#C8F169"/>
<path d="M152.26 124.973H139.906V127.358H152.26V124.973Z" fill="#C8F169"/>
<path d="M152.26 133.365H139.906V135.751H152.26V133.365Z" fill="#C8F169"/>
<path d="M152.26 141.753H139.906V144.139H152.26V141.753Z" fill="#C8F169"/>
<path d="M152.26 150.145H139.906V152.53H152.26V150.145Z" fill="#C8F169"/>
<path d="M152.26 158.537H139.906V160.923H152.26V158.537Z" fill="#C8F169"/>
<path d="M152.26 166.974H139.906V169.36H152.26V166.974Z" fill="#C8F169"/>
<path d="M152.26 175.411H139.906V177.796H152.26V175.411Z" fill="#C8F169"/>
<path d="M152.26 183.848H139.906V186.233H152.26V183.848Z" fill="#C8F169"/>
<path d="M152.26 192.284H139.906V194.67H152.26V192.284Z" fill="#C8F169"/>
<path d="M233.2 110.658L233.2 99.8018L157.547 99.8018L157.547 110.658L233.2 110.658Z" fill="#C8F169"/>
<path d="M204.703 127.282L204.703 116.425L157.547 116.425L157.547 127.282L204.703 127.282Z" fill="#C8F169"/>
<path d="M233.2 143.905L233.2 133.049L157.547 133.049L157.547 143.905L233.2 143.905Z" fill="#C8F169"/>
<path d="M291.213 160.528L291.213 149.672L157.547 149.672L157.547 160.528L291.213 160.528Z" fill="#C8F169"/>
<path d="M269.162 177.83L269.162 166.974L157.548 166.974L157.548 177.83L269.162 177.83Z" fill="#C8F169"/>
<path d="M204.703 195.132L204.703 184.276L157.547 184.276L157.547 195.132L204.703 195.132Z" fill="#C8F169"/>
<path d="M161.187 95.8754L163.266 92.0901L165.443 95.8754L167.913 94.1111L165.151 90.8391L169.082 90.1012L168.238 87.2463L164.533 88.8502L164.956 84.68H161.707L162.129 88.8502L158.425 87.2463L157.548 90.1012L161.447 90.8391L158.685 94.1111L161.187 95.8754Z" fill="#C8F169"/>
</g>
</g>
</svg>
